<svg id="Layer_1" data-name="Layer 1" xmlns="http://www.w3.org/2000/svg" viewBox="0 0 50 50"><defs><style>.cls-1{fill-rule:evenodd;}</style></defs><path id="logo-whatsapp-2" class="cls-1" d="M42.33,7.7A24.31,24.31,0,0,0,4,37L.54,49.5l12.91-3.37a24.43,24.43,0,0,0,11.64,2.95h0A24.35,24.35,0,0,0,49.46,24.84,24,24,0,0,0,42.33,7.7ZM25.1,45h0a20.28,20.28,0,0,1-10.3-2.81l-.74-.43-7.66,2,2.05-7.44L8,35.55A20.25,20.25,0,1,1,25.1,45ZM36.2,29.9c-.61-.3-3.6-1.76-4.16-2s-1-.3-1.36.3-1.58,2-1.93,2.38-.71.45-1.32.15a16.69,16.69,0,0,1-4.89-3,18,18,0,0,1-3.38-4.19c-.36-.61,0-.94.26-1.24s.61-.7.92-1.06a3.8,3.8,0,0,0,.6-1,1.08,1.08,0,0,0-.05-1.06c-.15-.3-1.37-3.28-1.87-4.5s-1-1-1.37-1l-1.17,0a2.24,2.24,0,0,0-1.62.76,6.78,6.78,0,0,0-2.13,5.05c0,3,2.18,5.86,2.48,6.27s4.3,6.52,10.4,9.14a35.13,35.13,0,0,0,3.47,1.28,8.55,8.55,0,0,0,3.83.24c1.17-.18,3.6-1.47,4.11-2.88a5,5,0,0,0,.35-2.88c-.15-.25-.56-.41-1.17-.71Z"/></svg>