<svg id="Layer_1" data-name="Layer 1" xmlns="http://www.w3.org/2000/svg" viewBox="0 0 50 50"><path id="call" d="M39.74,49.45c-2.13,0-5.13-.77-9.61-3.27A62.67,62.67,0,0,1,15,34.89,57.51,57.51,0,0,1,3.71,19.8C-.31,12.49.37,8.65,1.14,7a10.22,10.22,0,0,1,4-4.29A19.53,19.53,0,0,1,8.27,1.06l.3-.13A2.92,2.92,0,0,1,11,.71a7.21,7.21,0,0,1,2.28,1.75,38,38,0,0,1,5.69,8.45,8.5,8.5,0,0,1,1.12,3.46,5.44,5.44,0,0,1-1.4,3.26c-.14.2-.28.38-.42.56-.83,1.09-1,1.41-.89,2,.24,1.14,2.06,4.5,5,7.48s6.26,4.68,7.39,4.92c.59.13.91-.06,2-.92l.5-.38a5.53,5.53,0,0,1,3.3-1.48h0A8,8,0,0,1,39.11,31a42.23,42.23,0,0,1,8.42,5.66,7.12,7.12,0,0,1,1.76,2.27,3,3,0,0,1-.22,2.4c0,.09-.09.19-.13.3a19.48,19.48,0,0,1-1.67,3.12,10.28,10.28,0,0,1-4.3,4,7.35,7.35,0,0,1-3.23.71Z"/></svg>