<svg id="Layer_1" data-name="Layer 1" xmlns="http://www.w3.org/2000/svg" viewBox="0 0 102.28 57.55"><defs><style>.cls-1{fill:none;stroke:#fff;stroke-width:2px;}</style></defs><g id="van-black-silhouette-from-side-view"><g id="Grupo_20" data-name="Grupo 20"><path id="Caminho_31" data-name="Caminho 31" class="cls-1" d="M98.66,37.74c0,6.44-5.34,5.82-5.34,5.82l-4.2.07A12.07,12.07,0,0,0,65,43.87V44c-3.31,0-17.75-.17-31.35-.4A12.07,12.07,0,0,0,9.53,43c-.5,0-.94-.06-1.27-.1-7.15-.7-5.12-4.5-5.2-5.47s1.67-1.25,1.67-1.25S1.82,31.38,4.73,20,2.61,2.8,18.5,2.65s54.88.68,54.88.68,10.76.71,13.32,6,9.89,15.53,9.89,15.53c2,2.83,1.67,7.63,1.67,7.63A4.12,4.12,0,0,1,98.66,37.74Z"/><path id="Caminho_32" data-name="Caminho 32" class="cls-1" d="M77.05,36.33a9.3,9.3,0,1,0,9.3,9.3h0A9.3,9.3,0,0,0,77.05,36.33Z"/><path id="Caminho_33" data-name="Caminho 33" class="cls-1" d="M21.57,36.33a9.3,9.3,0,1,0,9.3,9.3h0A9.3,9.3,0,0,0,21.57,36.33Z"/></g></g></svg>