<svg xmlns="http://www.w3.org/2000/svg" width="29.063" height="29.063" viewBox="0 0 29.063 29.063"><defs><style>.a{fill:#f7f7f7;}</style></defs><path class="a" d="M52.586,34.422a6.073,6.073,0,0,1,6.055,6.055V52.586a6.073,6.073,0,0,1-6.055,6.055H40.477a6.073,6.073,0,0,1-6.055-6.055V40.477a6.073,6.073,0,0,1,6.055-6.055H52.586m0-2.422H40.477A8.5,8.5,0,0,0,32,40.477V52.586a8.5,8.5,0,0,0,8.477,8.477H52.586a8.5,8.5,0,0,0,8.477-8.477V40.477A8.5,8.5,0,0,0,52.586,32Z" transform="translate(-32 -32)"/><path class="a" d="M351.146,110.3a1.812,1.812,0,1,1,1.286-.531A1.816,1.816,0,0,1,351.146,110.3Z" transform="translate(-328.744 -101.826)"/><path class="a" d="M151.266,146.422a4.844,4.844,0,1,1-4.844,4.844,4.844,4.844,0,0,1,4.844-4.844m0-2.422a7.266,7.266,0,1,0,7.266,7.266A7.266,7.266,0,0,0,151.266,144Z" transform="translate(-136.734 -136.734)"/></svg>