<?xml version="1.0" encoding="utf-8"?>
<!-- Generator: Adobe Illustrator 24.1.2, SVG Export Plug-In . SVG Version: 6.00 Build 0)  -->
<svg version="1.1" id="Layer_1" xmlns="http://www.w3.org/2000/svg" xmlns:xlink="http://www.w3.org/1999/xlink" x="0px" y="0px"
	 viewBox="0 0 841.89 595.28" style="enable-background:new 0 0 841.89 595.28;" xml:space="preserve">
<style type="text/css">
	.st0{fill:#EC2127;}
	.st1{fill:#FFFFFF;}
</style>
<g>
	<path class="st0" d="M477.84,250.33v37.42c4.39-5.04,9.28-6.99,14.06-6.99c6.75,0,11.62,2.61,15.28,6.83
		c3.66,4.19,5.12,9.27,5.12,14.32c0,6.45-1.85,11.79-5.54,16c-3.66,4.19-8.29,6.28-13.89,6.28c-4.73,0-9.76-0.43-15.04-6.85v5.65
		h-7.07v-72.66H477.84z M504.82,302.73c0-4.54-1.27-8.24-3.81-11.09c-2.57-2.92-5.8-4.38-9.68-4.38c-4.15,0-7.52,1.41-10.13,4.23
		c-2.57,2.79-3.86,6.42-3.86,10.9c0,4.6,1.27,8.29,3.81,11.04c2.54,2.82,5.88,4.23,10.03,4.23c3.91,0,7.15-1.41,9.73-4.23
		C503.52,310.58,504.82,307.01,504.82,302.73z M521.73,265.95c0-1.36,0.5-2.54,1.49-3.54c0.99-0.99,2.18-1.49,3.57-1.49
		c1.41,0,2.61,0.5,3.61,1.49c0.99,0.97,1.49,2.16,1.49,3.57c0,1.41-0.5,2.61-1.49,3.61c-0.97,0.99-2.16,1.49-3.57,1.49
		c-1.41,0-2.61-0.5-3.61-1.49C522.23,268.6,521.73,267.39,521.73,265.95z M530.24,281.65v41.54h-7.12v-41.54H530.24z M551.18,250.33
		l-0.03,46.71l14.98-15.28h9.51l-17.64,17.72l21.03,23.71h-9.4l-16.69-18.86l-1.79,1.82v17.04h-7.07v-72.86H551.18z M621.22,303.93
		h-32.35c0,3.9,1.77,8.03,3.74,10.03c1.97,1.97,4.71,3.9,9.32,3.9c3.96,0,6.02-1.26,7.59-2.38c1.54-1.13,3.29-3.19,5.26-6.23
		l6.02,3.31c-1.26,2.11-2.15,3.56-3.55,5.07c-1.4,1.51-4.47,4.69-9.3,5.96c-1.85,0.49-3.87,0.68-6.04,0.68
		c-6.23,0-11.22-1.97-14.99-5.91c-3.77-3.97-5.77-9.24-5.65-15.8c0.12-6.74,1.95-11.53,5.61-15.56c3.68-3.97,8.44-6.19,14.53-6.19
		c6.14,0,10.9,2.35,14.47,6.21c3.54,3.83,5.14,8.88,5.4,15.5L621.22,303.93z M613.7,297.86c-1.7-7.08-5.79-10.62-12.28-10.62
		c-1.48,0-2.87,0.25-4.16,0.74c-1.3,0.49-2.48,1.2-3.54,2.12c-1.06,0.92-1.97,2.04-2.73,3.33c-0.76,1.3-1.33,2.77-1.73,4.42H613.7z"
		/>
	<g>
		<path class="st1" d="M312.27,315.81c-1.7,0-3.16-0.57-4.39-1.72c-0.63-0.57-2.11-2.53-3.25-5.35l-8.78,3.58
			c3.85,9.48,8.92,12.57,16.24,12.57c4.27,0,7.91-1.36,10.92-4.07c3.1-2.86,4.65-6.42,4.65-10.67c0-3.32-0.98-5.9-2.78-7.91
			c-2.81-3.15-5.45-4.1-10.79-6.42c-3.88-1.66-5.62-2.84-5.62-4.53c0-1.3,0.86-3.29,3.79-3.36c2.38-0.05,4.01,2.36,5.04,4.55
			l8.29-4.25c-2.72-5.82-6.58-9.43-13.28-9.43c-6.69,0-13.25,4.61-13.33,12.82c0,2.89,0.7,5.15,2.22,6.99
			c1.19,1.45,3.17,2.84,6.1,4.28c1.04,0.51,6.17,2.79,7.18,3.31c2.03,0.95,3.17,2.33,3.2,4.15
			C317.75,313.68,315.23,315.92,312.27,315.81z"/>
		<polygon class="st1" points="247.96,325.98 268.3,281.68 267.08,279.62 258.27,279.62 246.81,305.82 235.25,279.62 226.61,279.62 
			225.34,281.71 245.67,325.98 		"/>
		<polygon class="st1" points="277.56,279.52 275.99,281.09 275.99,322.45 277.47,323.92 284.43,323.92 285.92,322.43 
			285.92,281.04 284.4,279.52 		"/>
		<path class="st1" d="M285.51,260.68c-1.24-1.25-2.75-1.87-4.52-1.87c-1.74,0-3.23,0.63-4.47,1.87c-1.24,1.25-1.87,2.73-1.87,4.44
			c0,1.8,0.62,3.33,1.87,4.57c1.24,1.25,2.75,1.87,4.52,1.87c1.77,0,3.26-0.62,4.47-1.87c1.24-1.25,1.87-2.76,1.87-4.53
			C287.38,263.4,286.75,261.91,285.51,260.68z"/>
		<path class="st1" d="M345.66,279.62h-7.07l-1.42,1.42v24.06c0,4.04,0.4,7.08,1.2,9.13c0.83,2.29,2.25,4.35,4.25,6.19
			c3.26,2.98,7.4,4.47,12.41,4.47c5.04,0,9.23-1.39,12.5-4.37c1.98-1.84,3.47-3.93,4.27-6.22c0.83-2.56,1.1-5.68,1.1-9.21v-24.24
			l-1.25-1.25h-7.07l-1.35,1.35v23.92c0,3.39-0.36,6.22-1.58,8.01c-1.26,1.85-3.7,2.93-6.62,2.93c-3.15,0-5.67-1.38-6.91-3.54
			c-1.01-1.76-1.06-4.27-1.06-7.36l0.06-23.84L345.66,279.62z"/>
		<path class="st1" d="M419.67,323.76h7.09l1.28-1.28v-41.51l-1.35-1.35h-7.01l-1.4,1.4v2.54c-4.45-3.62-7.79-4.92-12.99-4.92
			c-5.91,0-11.44,2.13-15.36,6.58c-3.93,4.46-6,9.86-6,16.54c0,5.86,1.87,11.72,5.79,16.27c3.96,4.46,9.27,6.95,15.17,6.95
			c4.51,0,9.23-1.03,13.4-5v2.38L419.67,323.76z M415.24,311.87c-2.33,2.56-5.39,3.84-9.17,3.84c-3.54,0-6.48-1.33-8.8-3.98
			c-2.27-2.62-3.4-6.02-3.4-10.19c0-3.9,1.16-7.18,3.49-9.83c2.36-2.62,5.29-3.93,8.8-3.93c3.72,0,6.75,1.3,9.08,3.89
			c2.33,2.65,3.49,6.02,3.49,10.1C418.74,305.86,417.57,309.22,415.24,311.87z"/>
		<polygon class="st1" points="451.21,322.51 451.21,249.52 449.86,248.16 442.94,248.16 441.58,249.52 441.58,322.56 
			442.79,323.77 449.96,323.77 		"/>
		<path class="st1" d="M574.73,342.24c0-0.66-0.53-1.19-1.19-1.19s-1.19,0.53-1.19,1.19s0.53,1.19,1.19,1.19
			S574.73,342.9,574.73,342.24z"/>
		<path class="st1" d="M556.21,338.2c-0.06-1.58-0.44-2.78-1.29-3.69c-0.85-0.92-1.98-1.48-3.45-1.48c-1.45,0-2.58,0.53-3.46,1.47
			c-0.87,0.96-1.31,2.1-1.33,3.7c-0.03,1.56,0.45,2.82,1.35,3.76c0.9,0.94,2.09,1.41,3.57,1.41c0.52,0,1-0.04,1.44-0.16
			c1.15-0.3,1.88-1.06,2.21-1.42c0.33-0.36,0.55-0.7,0.85-1.21l-1.43-0.79c-0.47,0.72-0.88,1.22-1.25,1.48
			c-0.37,0.27-0.86,0.57-1.81,0.57c-1.1,0-1.75-0.46-2.22-0.93c-0.47-0.48-0.89-1.46-0.89-2.39h7.7L556.21,338.2z M548.59,337.09
			c0.09-0.39,0.23-0.74,0.41-1.05c0.18-0.31,0.4-0.57,0.65-0.79c0.25-0.22,0.53-0.39,0.84-0.51c0.31-0.12,0.64-0.18,0.99-0.18
			c1.54,0,2.52,0.84,2.92,2.53H548.59z"/>
		<path class="st1" d="M604.61,341.16h6.1v2.01h1.3v-2.01h1.52v-1.14h-1.52v-9.4L604.61,341.16z M610.71,340.02h-3.82l3.82-5.37
			V340.02z"/>
		<path class="st1" d="M593.59,337.3c0.08-0.11,0.15-0.22,0.21-0.34c0.06-0.09,0.11-0.19,0.15-0.29c0.06-0.13,0.12-0.26,0.16-0.4
			c0.03-0.1,0.06-0.19,0.08-0.29c0.03-0.08,0.04-0.17,0.05-0.25c0.04-0.22,0.06-0.44,0.06-0.66c0-2.19-1.84-3.97-4.11-3.97
			c-2.28,0-4.12,1.78-4.12,3.97s1.84,3.97,4.12,3.97c0.14,0,0.28-0.01,0.42-0.02c0.12-0.01,0.23-0.03,0.34-0.05l-2.64,3.78
			l0.98,0.74l4.25-6.11c-0.06,0.08-0.11,0.15-0.18,0.22c0.06-0.07,0.12-0.14,0.17-0.22C593.55,337.36,593.57,337.33,593.59,337.3z
			 M592.57,336.66c-0.52,0.72-1.38,1.2-2.36,1.2c-1.57,0-2.85-1.24-2.85-2.76c0-1.52,1.28-2.76,2.85-2.76
			c1.58,0,2.86,1.24,2.86,2.76C593.07,335.68,592.88,336.22,592.57,336.66z"/>
		<path class="st1" d="M603.76,337.3c0.08-0.11,0.15-0.22,0.21-0.34c0.06-0.09,0.11-0.19,0.15-0.29c0.06-0.13,0.12-0.26,0.16-0.4
			c0.03-0.1,0.06-0.19,0.08-0.29c0.03-0.08,0.04-0.17,0.05-0.25c0.04-0.22,0.06-0.44,0.06-0.66c0-2.19-1.84-3.97-4.11-3.97
			c-2.28,0-4.12,1.78-4.12,3.97s1.84,3.97,4.12,3.97c0.14,0,0.28-0.01,0.42-0.02c0.12-0.01,0.23-0.03,0.34-0.05l-2.64,3.78
			l0.98,0.74l4.25-6.11c-0.06,0.08-0.11,0.15-0.18,0.22c0.06-0.07,0.12-0.14,0.17-0.22C603.72,337.36,603.74,337.33,603.76,337.3z
			 M602.74,336.66c-0.52,0.72-1.38,1.2-2.36,1.2c-1.57,0-2.85-1.24-2.85-2.76c0-1.52,1.28-2.76,2.85-2.76
			c1.58,0,2.86,1.24,2.86,2.76C603.24,335.68,603.05,336.22,602.74,336.66z"/>
		<path class="st1" d="M561.54,341.97c-0.88,0.05-1.52-0.48-1.96-1.57l-1.41,0.62c0.49,1.31,1.59,2.41,3.25,2.41
			c2.2,0,3.48-1.2,3.48-2.9c0-1.8-0.78-2.39-2.43-3.16c-1.53-0.72-2.14-1.03-2.14-1.73c0-0.43,0.41-1.07,1.2-1.07
			c0.51,0,1.06,0.07,1.37,0.98l1.44-0.79c-0.51-1.08-1.27-1.73-2.82-1.73c-1.86,0-2.76,1.18-2.76,2.8c0,1.22,0.8,1.95,2.36,2.59
			c1.53,0.64,2.11,0.95,2.11,1.98C563.24,341.33,562.69,341.9,561.54,341.97z"/>
		<polygon class="st1" points="567.28,329.67 567.28,333.27 566.27,333.27 566.27,334.84 567.28,334.84 567.28,343.21 
			568.98,343.21 568.98,334.84 570.85,334.84 570.85,333.27 568.98,333.27 568.98,329.67 		"/>
		<polygon class="st1" points="582.38,343.3 582.38,331.3 579.93,331.3 579.08,332.54 581.04,332.54 581.04,343.3 		"/>
		<path class="st1" d="M621.32,237.66H231.06c-0.46,0-0.83,0.37-0.83,0.83v1.53c0,0.46,0.37,0.83,0.83,0.83h390.26
			c0.46,0,0.83-0.37,0.83-0.83v-1.53C622.14,238.03,621.77,237.66,621.32,237.66z"/>
		<path class="st1" d="M621.32,354.43H231.06c-0.46,0-0.83,0.37-0.83,0.83v1.53c0,0.46,0.37,0.83,0.83,0.83h390.26
			c0.46,0,0.83-0.37,0.83-0.83v-1.53C622.14,354.8,621.77,354.43,621.32,354.43z"/>
	</g>
</g>
</svg>
