<svg xmlns="http://www.w3.org/2000/svg" width="29.063" height="29.063" viewBox="0 0 29.063 29.063"><defs><style>.a{fill:#f7f7f7;}</style></defs><path class="a" d="M59.458,32H33.6A1.6,1.6,0,0,0,32,33.6V59.458a1.6,1.6,0,0,0,1.6,1.6H46.531V49.645H43.057V45.493h3.474V42.185c0-3.753,2.6-5.8,5.957-5.8,1.6,0,3.33.121,3.731.174v3.92H53.547c-1.824,0-2.172.863-2.172,2.134v2.877h4.346l-.568,4.152H51.375V61.063h8.083a1.6,1.6,0,0,0,1.6-1.6V33.6A1.6,1.6,0,0,0,59.458,32Z" transform="translate(-32 -32)"/></svg>