<svg xmlns="http://www.w3.org/2000/svg" width="48.912" height="48.912" viewBox="0 0 48.912 48.912"><defs><style>.a{fill:#35c462;fill-rule:evenodd;}</style></defs><path class="a" d="M73.786,39.107A24.309,24.309,0,0,0,35.456,68.356L32,80.911l12.91-3.37a24.416,24.416,0,0,0,11.638,2.948h.01A24.332,24.332,0,0,0,80.912,56.251a24.039,24.039,0,0,0-7.126-17.144ZM56.559,76.4H56.55a20.28,20.28,0,0,1-10.3-2.808l-.739-.437-7.661,2,2.045-7.434-.481-.764A20.259,20.259,0,1,1,56.559,76.4Zm11.1-15.087c-.608-.3-3.6-1.769-4.158-1.971s-.964-.3-1.369.3-1.572,1.965-1.927,2.375-.71.454-1.318.151A16.645,16.645,0,0,1,54,59.163a18.262,18.262,0,0,1-3.385-4.195c-.355-.606-.038-.935.266-1.236.274-.272.608-.707.913-1.061A4.1,4.1,0,0,0,52.4,51.66a1.112,1.112,0,0,0-.05-1.06c-.152-.3-1.369-3.284-1.876-4.5-.495-1.181-1-1.021-1.369-1.039-.355-.017-.764-.022-1.167-.022a2.241,2.241,0,0,0-1.622.758,6.786,6.786,0,0,0-2.13,5.053c0,2.978,2.184,5.861,2.485,6.265s4.291,6.521,10.395,9.145a35.278,35.278,0,0,0,3.47,1.275,8.378,8.378,0,0,0,3.832.24c1.169-.174,3.6-1.465,4.108-2.88a5.056,5.056,0,0,0,.355-2.879C68.676,61.766,68.27,61.613,67.661,61.31Z" transform="translate(-32 -31.999)"/></svg>